<svg width="38" height="33" viewBox="0 0 38 33" fill="none" xmlns="http://www.w3.org/2000/svg">
<path d="M7.58344 9.7357L8.14672 9.48517C8.67168 8.5848 9.30776 7.74707 10.0473 6.99546C12.4115 4.58013 15.6226 3.22175 18.9678 3.22175C22.3129 3.22175 25.5202 4.58013 27.8882 6.99546C28.6354 7.75881 29.2792 8.6122 29.8118 9.52431L31.2372 10.1546L33.8735 11.3211L34.0498 11.3994C32.0764 4.79935 26.0719 0 18.9678 0C11.8636 0 5.85913 4.79543 3.88574 11.3916L6.02006 10.4364L7.58344 9.7357Z" fill="#D8D8D8"/>
<path d="M29.1412 23.7222C28.7657 24.2506 28.3442 24.7517 27.8882 25.2215C25.5201 27.6368 22.3129 28.9952 18.9677 28.9952C15.6225 28.9952 12.4115 27.6368 10.0472 25.2215C9.58743 24.7517 9.16593 24.2506 8.79041 23.7222L6.43768 24.7752L5.84375 25.0414C8.67163 29.3671 13.4921 32.2169 18.9677 32.2169C24.4472 32.2169 29.2715 29.3632 32.0955 25.0297L31.1031 24.5912L29.1412 23.7222Z" fill="#D8D8D8"/>
<path d="M8.43765 21.7428L7.83223 18.3058L7.98933 18.2353L10.116 20.9912L12.8749 19.7542L11.6679 10.042L9.27682 11.1146L9.67916 12.7079L10.5566 17.609L10.3995 17.6795L7.65596 13.7413L6.88577 12.3986L6.78997 12.2303L4.16135 13.4047L5.468 15.2132L6.17305 19.5702L6.01595 19.6407L3.22255 15.409L3.21489 15.3933L2.52517 14.1406L0 15.2719L3.76667 20.3962L5.66725 22.9838L7.77092 22.0404L8.43765 21.7428Z" fill="#D8D8D8"/>
<path d="M19.0788 9.78223C17.6112 9.78614 16.477 10.2246 15.68 11.1015C14.883 11.9823 14.4845 13.2232 14.4883 14.8282C14.4921 16.3275 14.8562 17.4862 15.588 18.3005C16.3161 19.1147 17.3468 19.5218 18.6726 19.5218H18.688C20.1556 19.5179 21.2898 19.0677 22.0868 18.1791C22.8838 17.2866 23.2823 16.0261 23.2785 14.4015C23.2747 12.9335 22.9068 11.7944 22.1788 10.9879C21.4507 10.1854 20.4238 9.78223 19.0941 9.78223H19.0788ZM20.1671 13.2193C20.2514 13.6342 20.2973 14.241 20.2973 15.0318C20.2973 15.662 20.259 16.1435 20.1786 16.4763C20.0981 16.809 19.964 17.0439 19.7762 17.1731C19.5885 17.3062 19.3087 17.3727 18.937 17.3727C18.937 17.3727 18.9332 17.3727 18.9294 17.3727C18.5385 17.3727 18.2397 17.2905 18.0366 17.1261C17.8335 16.9617 17.6879 16.672 17.5997 16.257C17.5154 15.8421 17.4695 15.2314 17.4695 14.4289C17.4695 13.7986 17.5078 13.3211 17.5882 12.9922C17.6687 12.6634 17.8028 12.4324 17.9906 12.3033C18.1783 12.1702 18.4581 12.1036 18.8298 12.1036C18.8298 12.1036 18.8336 12.1036 18.8374 12.1036C19.2283 12.1036 19.5271 12.1858 19.7302 12.3502C19.9333 12.5146 20.0789 12.8043 20.1671 13.2193Z" fill="#D8D8D8"/>
<path d="M35.6016 14.2148L34.7356 15.6045L34.7241 15.6241L31.8234 19.5975L31.6663 19.5309L32.6166 14.7942L33.1109 13.1187L30.9766 12.1753L30.4784 11.9522L30.0723 14.16L27.4321 17.6597L27.275 17.5893L28.4016 12.6177L28.8346 11.228L26.3056 10.1123L24.6426 19.6053L27.4206 20.8306L29.4668 18.0355L29.6239 18.106L29.099 21.5744L30.1642 22.0441L31.8655 22.7957L34.3179 19.7893L38.0003 15.2757L35.6016 14.2148Z" fill="#D8D8D8"/>
</svg>
